<svg height="626pt" viewBox="-28 -19 626 626.66816" width="626pt" xmlns="http://www.w3.org/2000/svg"><path d="m44.246094 414.933594h45.898437c8.734375 9.996094 19.703125 15.871094 31.671875 19.417968-13.347656 16.582032-13.304687 40.234376.105469 56.757813l41.078125 50.414063c15.664062 19.183593 43.902344 22.066406 63.113281 6.445312l35.488281-28.929688c18.582032 1.984376 37.179688-3.539062 51.671876-15.335937l63.367187-51.695313c10.140625 15.082032 27.113281 24.140626 45.289063 24.164063h93.597656c14.398437-.007813 28.199218-5.753906 38.355468-15.964844 10.160157-10.207031 15.832032-24.039062 15.769532-38.441406v-223.722656c.1875-25.09375-16.878906-47.039063-41.246094-53.039063v-25.5c-.214844-14.246094-11.785156-25.699218-26.027344-25.769531h-3.964844v-19.996094h8.171876c4.832031 0 9.324218-3.734375 9.324218-8.566406v-56.515625c0-4.832031-4.5-8.65625-9.324218-8.65625h-75.710938c-2.304688-.0195312-4.527344.882812-6.15625 2.507812-1.636719 1.628907-2.554688 3.839844-2.542969 6.148438v20.832031c-7.5-5.09375-15.359375-8.40625-24.558593-8.558593l-64.945313-.933594h-.097656c-4.835938.113281-8.710938 4.054687-8.746094 8.890625-.058594 4.859375 3.800781 8.851562 8.65625 8.964843l64.871094.746094c13.746093.257813 24.699219 11.589844 24.488281 25.335938-.015625.953125.136719 1.90625.445312 2.804687.808594 4.09375 4.410157 7.035157 8.582032 7h7.550781v19.996094h-3.34375c-14.117187.121094-25.480469 11.644531-25.402344 25.769531v25.5c-23.746093 5.640625-42.492187 27.273438-42.492187 53.039063v64.953125c-.726563-.222656-1.476563-.34375-2.238282-.359375-7.054687-.742188-14.109374 1.382812-19.589843 5.894531l-35.933594 29.332031c-.105469-10.441406-3.761719-20.527343-10.371094-28.59375-2.742187-3.390625-6.722656-5.535156-11.058593-5.960937-4.296876-.546875-8.628907.660156-12.027344 3.347656l-8.964844 7.050781h-.144531c6.570312-8.097656 10.117187-18.226562 10.046875-28.648437-.015625-9.050782-7.367188-16.371094-16.417969-16.347656h-127.761719c-22.796875-.117188-43.789062 12.390624-54.535156 32.496093h-33.941406c-11.800782-.09375-23.152344 4.546875-31.511719 12.878907-8.363281 8.328124-13.039063 19.660156-12.988281 31.460937v65.007813c-.050782 11.804687 4.625 23.140624 12.984375 31.472656 8.359375 8.339844 19.710937 12.988281 31.515625 12.90625zm471.28125 43.742187h-93.597656c-12.929688-.023437-24.917969-6.78125-31.632813-17.835937l13.394531-10.910156h65.039063c2.28125 0 4.464843-.921876 6.058593-2.5625 1.585938-1.636719 2.445313-3.847657 2.378907-6.128907v-139.410156l.625.132813c5.011719 1.429687 10.195312 2.15625 15.40625 2.15625 8.839843-.003907 17.554687-2.113282 25.414062-6.144532 8.476563-4.390625 18.304688-5.394531 27.492188-2.816406l6.046875 1.722656v144.886719c.070312 9.761719-3.761719 19.148437-10.636719 26.074219-6.875 6.929687-16.226563 10.832031-25.988281 10.835937zm-84.914063-85.226562c-2.019531-2.460938-4.453125-4.535157-7.203125-6.136719l8.535156-6.957031c6.929688-5.644531 10.59375-14.375 9.757813-23.28125-.835937-8.898438-6.0625-16.800781-13.929687-21.050781 7.988281-10.875 6.644531-25.992188-3.132813-35.289063-9.785156-9.292969-24.953125-9.867187-35.402344-1.332031l-1.667969 1.25c-.695312-2.039063-1.667968-3.984375-2.890624-5.765625v-48.671875h74.988281v186.21875h-34.515625l1.621094-1.292969c11.472656-9.347656 13.191406-26.222656 3.839843-37.691406zm9.058594-355.953125h58.742187v38.746094h-58.742187zm16.246094 56.242187h24.996093v19.996094h-24.996093zm-20.839844 37.492188h67.300781c4.585938.058593 8.328125 3.6875 8.53125 8.273437v24.222656h-83.734375v-24.222656c-.089843-4.464844 3.445313-8.160156 7.902344-8.273437zm-13.148437 49.992187h93.597656c9.75-.007812 19.105468 3.871094 25.984375 10.785156 6.875 6.914063 10.707031 16.285157 10.640625 26.035157v60.679687l-1.347656-.425781c-13.441407-3.753906-27.8125-2.289063-40.222657 4.105469-8.660156 4.4375-18.675781 5.414062-28.027343 2.738281l-5.386719-1.507813v-45.710937c0-4.832031-3.605469-9.207031-8.4375-9.207031h-84.050781v-10.671875c.164062-20.433594 16.816406-36.890625 37.25-36.820313zm-130.109376 140.160156c-.75 7.585938-4.503906 14.550782-10.421874 19.355469l-33.273438 27.125c-2.445312 1.96875-3.648438 5.097657-3.152344 8.195313.492188 3.101562 2.613282 5.699218 5.546875 6.808594 2.9375 1.105468 6.242188.554687 8.664063-1.441407l33.265625-27.125 64.035156-52.203125c3.980469-3.246094 9.84375-2.652344 13.09375 1.332032 3.25 3.984374 2.652344 9.847656-1.328125 13.09375l-83.269531 67.894531c-2.445313 1.96875-3.644531 5.09375-3.152344 8.191406.492187 3.101563 2.609375 5.699219 5.550781 6.804687 2.933594 1.109376 6.238282.5625 8.660156-1.4375l83.265626-67.898437 20.988281-17.117187c3.988281-3.246094 9.851562-2.652344 13.101562 1.332031 3.246094 3.984375 2.648438 9.847656-1.335937 13.097656l-13.992188 11.40625-20.992187 17.113281-69.273438 56.488282c-2.464843 1.960937-3.6875 5.09375-3.199219 8.210937.492188 3.109375 2.617188 5.71875 5.570313 6.824219 2.949219 1.109375 6.269531.542968 8.683594-1.480469l89.121093-72.664063 1.144532-.929687c2.574218-2.144531 6.097656-2.734375 9.230468-1.558594 3.136719 1.179688 5.394532 3.949219 5.917969 7.253907.523438 3.308593-.765625 6.640624-3.382812 8.730468l-24.5 19.972656c-.421875.34375-.8125.734376-1.167969 1.160157-.808594.519531-1.582031 1.085937-2.324219 1.691406l-48.285156 39.367187c-2.445313 1.96875-3.652344 5.097657-3.152344 8.195313.492188 3.097656 2.609375 5.695313 5.546875 6.804687 2.9375 1.109376 6.242188.558594 8.664063-1.4375l48.277343-39.371093c3.988282-3.25 9.851563-2.652344 13.097657 1.328125 3.253906 3.988281 2.652343 9.851562-1.332031 13.101562l-113.492188 92.546875c-11.414062 9.300781-26.207031 13.382813-40.773438 11.246094-2.742187-.765625-5.6875-.15625-7.894531 1.648437l-38.484375 31.375c-11.722656 9.535157-28.945312 7.78125-38.503906-3.917968l-41.078125-50.382813c-9.550781-11.714843-7.796875-28.953125 3.914063-38.5l23.371093-19.054687c.148438-.128906.292969-.25.429688-.375l6.863281-6.382813c2.324219-2.164062 3.296875-5.414062 2.539062-8.5-4.148437-17.046875 1.839844-34.964843 15.40625-46.09375l98.164063-80.035156c4.382813 5.773437 6.40625 13 5.648437 20.210937zm-274.578124 4.164063c-.054688-7.164063 2.777343-14.046875 7.859374-19.09375 5.082032-5.054687 11.980469-7.847656 19.144532-7.75h27.113281c-1.070313 4.445313-1.585937 8.992187-1.546875 13.5625-.058594 20.210937 7.996094 39.605469 22.347656 53.835937l3.6875 3.617188c3.429688 3.417969 8.980469 3.402344 12.398438-.03125 3.417968-3.429688 3.402344-8.980469-.027344-12.398438l-3.679688-3.691406c-11.074218-11.078125-17.273437-26.113281-17.230468-41.773437.015625-25.109375 20.304687-45.492188 45.414062-45.613281h126.660156c-.570312 16.246093-13.226562 27.496093-28.703124 27.496093h-51.910157c-4.878906.121094-8.769531 4.125-8.75 9.003907-.003906 13.640624-11.019531 24.714843-24.652343 24.792968-4.84375.027344-8.753907 3.96875-8.75 8.8125.007812 2.292969.941406 4.492188 2.585937 6.097656 1.644531 1.601563 3.867187 2.472657 6.164063 2.421876 20.074218.238281 37.4375-13.925782 41.242187-33.632813h58.933594l-22.835938 18.746094h-16.847656c-4.152344.078125-7.695313 3.003906-8.5625 7.058593-.867187 4.054688 1.175781 8.171876 4.929687 9.941407l-25.28125 20.65625c-17.320312 14.21875-25.828124 36.546875-22.378906 58.691406l-3.074218 2.875-13.097657 10.6875c-23.269531-1.230469-44.367187-18.722656-49.71875-41.660156-1.105469-4.699219-5.804687-7.625-10.511719-6.527344-2.242187.46875-4.199218 1.820313-5.429687 3.753906-1.230469 1.933594-1.625 4.28125-1.101563 6.515625 1.296876 5.382813 3.253907 10.59375 5.839844 15.492188h-33.226562c-7.167969.089844-14.066406-2.714844-19.148438-7.769532-5.078125-5.054687-7.910156-11.941406-7.855468-19.109374zm0 0"/><path d="m353.101562 180.640625c12.144532-12.164063 15.257813-30.675781 7.765626-46.140625-.140626-.292969-.296876-.578125-.472657-.851562l-28.417969-45.039063c-1.609374-2.539063-4.398437-4.078125-7.402343-4.078125-3.003907 0-5.796875 1.539062-7.402344 4.078125l-28.417969 45.046875c-.175781.277344-.332031.558594-.472656.851562-8.597656 17.71875-3.144531 39.054688 12.898438 50.476563 16.046874 11.417969 37.992187 9.589844 51.921874-4.339844zm-44.683593-12.375c-6.761719-6.769531-8.589844-17.03125-4.585938-25.71875l20.746094-32.878906 20.75 32.878906c4.632813 10.046875 1.394531 21.976563-7.679687 28.304687-9.082032 6.332032-21.394532 5.242188-29.21875-2.582031zm0 0"/><path d="m179.597656 171.160156c0 18.722656 15.179688 33.902344 33.90625 33.902344 18.722656 0 33.898438-15.175781 33.898438-33.902344 0-18.722656-15.175782-33.90625-33.898438-33.90625-18.71875.023438-33.886718 15.1875-33.90625 33.90625zm50.308594 0c.003906 9.058594-7.339844 16.40625-16.402344 16.40625s-16.410156-7.347656-16.410156-16.40625c0-9.0625 7.347656-16.410156 16.410156-16.410156 9.054688.011719 16.394532 7.351562 16.402344 16.410156zm0 0"/><path d="m87.113281 121.167969c0 18.722656 15.179688 33.90625 33.90625 33.90625 18.722657 0 33.898438-15.179688 33.898438-33.90625 0-18.722657-15.175781-33.90625-33.898438-33.90625-18.71875.023437-33.886719 15.1875-33.90625 33.90625zm50.308594 0c.003906 9.058593-7.34375 16.40625-16.402344 16.40625-9.0625 0-16.410156-7.347657-16.410156-16.40625 0-9.0625 7.347656-16.410157 16.410156-16.410157 9.054688.011719 16.394531 7.351563 16.402344 16.410157zm0 0"/><path d="m309.578125 553.597656c0 18.71875 15.175781 33.902344 33.902344 33.902344 18.722656 0 33.902343-15.175781 33.902343-33.902344 0-18.722656-15.179687-33.90625-33.902343-33.90625-18.714844.023438-33.882813 15.1875-33.902344 33.90625zm50.308594 0c.003906 9.058594-7.34375 16.40625-16.40625 16.40625-9.058594 0-16.40625-7.347656-16.40625-16.40625 0-9.0625 7.347656-16.410156 16.40625-16.410156 9.058593.007812 16.394531 7.351562 16.40625 16.410156zm0 0"/><path d="m413.308594 546.097656c0 18.722656 15.179687 33.90625 33.90625 33.90625 18.722656 0 33.902344-15.179687 33.902344-33.90625 0-18.722656-15.179688-33.90625-33.902344-33.90625-18.71875.023438-33.886719 15.1875-33.90625 33.90625zm50.308594 0c.007812 9.058594-7.339844 16.40625-16.402344 16.40625s-16.40625-7.347656-16.40625-16.40625c0-9.0625 7.34375-16.410156 16.40625-16.410156 9.054687.011719 16.394531 7.351562 16.402344 16.410156zm0 0"/></svg>